<?xml version="1.0" encoding="utf-8"?>
<!-- Generator: Adobe Illustrator 21.0.0, SVG Export Plug-In . SVG Version: 6.00 Build 0)  -->
<svg version="1.1" id="Layer_1" xmlns="http://www.w3.org/2000/svg" xmlns:xlink="http://www.w3.org/1999/xlink" x="0px" y="0px"
	 viewBox="0 0 49.2 59.3" style="enable-background:new 0 0 49.2 59.3;" xml:space="preserve">
<style type="text/css">
	.st0{fill:#333333;}
</style>
<path class="st0" d="M32.3,47.3l-7.6,5.4l-7.6-5.4c-5.4-3.7-10-6.9-12.4-11.7c2,9,10.8,12.4,20,19.6c9.2-7.2,18-10.6,20-19.6
	C42.3,40.5,37.6,43.7,32.3,47.3z"/>
<g>
	<path class="st0" d="M32.1,14.4c-1.2-0.6-3.9-0.4-4.8,0.3c-1.5,1.1-1.3,2.9-1.2,3c0.3-0.5,0.8-1.3,1.6-1.8c1-0.7,2.6-1.2,4.2-1.1
		C32.3,14.8,32.6,14.6,32.1,14.4z"/>
	<path class="st0" d="M3.5,3.3v0.9c0.6,0.2,0.8,0.4,0.8,1.2v21.9c0,12.1,9.8,15.3,20.2,23.5C35,42.5,44.8,39.3,44.8,27.3v-22
		c0.1-0.7,0.3-0.8,0.8-1v-1C45.6,3.3,3.5,3.3,3.5,3.3z M11,37.5c2.1-3.2,2.1-6.6,2.1-6.6C11.4,31.5,8.4,32,8.4,32s2.8-2.1,4.9-8.7
		l2,1.8L15,26.3c0,0,1,1.4,1.2,2.3c0,0,1.3-2.6-0.1-5.3L15.8,24L15,23.3l-1.4-1.2c0,0,0.6-2.2,2.5-4.8l0.2,0.2l1.6,1.8l-0.5,0.8
		c0,0,1.1,1.1,2,2.5c0,0,0.5-2.3-0.2-4.8l-0.7,0.7l-1.7-2c2.5-2.5,4.8-3.9,7.7-4.9c-0.2,0.2-0.3,0.4-0.5,0.6c-1,1.4-1.9,3.8-1.1,7.8
		c0.1,0.6,0.3,1.5,0.5,2.4c0.4,1.8,0.9,3.9,1.1,5.2c0.3,2.7,0.1,4.5-0.8,5.4c-0.6,0.7-1.6,0.9-3,0.9c0-0.2,0-0.4,0-0.6
		c0-1.9-0.4-3.3-0.4-3.4l-0.4-1.3l-0.6,1.2C18.3,31.6,15.3,36.5,11,37.5C11.1,37.5,11,37.5,11,37.5z M31.9,38.7
		c-0.7,0.2-3.2,0.1-3.2,0.1s1.7-0.7,2.6-3.5C32.1,37,31.9,38.7,31.9,38.7z M35.8,33.2c-4.9,0.7-5.8-9.7-5.8-9.7s1.7,5.3,5.2,5.1
		c3.6-0.2,2.6-5.8,2.6-5.8S41.3,32.3,35.8,33.2z M41.8,13.6L37,13.8c0,0.6-0.1,1.2-0.3,1.7c0.5,2,0.1,3.1,0.1,3.1
		c-0.8-1.9-1.4-2.4-1.4-2.4c-4.4-2-6.9,2.5-6.7,5.4c0.2,2.4,1.1,5.5,1.8,10.5c0.6,4.2-1.5,6-4,6.4c-0.1,0-0.1,0-0.2,0l0,0
		c-0.4,0.1-0.8,0.1-1.3,0.1l0,0h-0.1c-0.2,0-0.4,0-0.6-0.1c-1.9-0.3-6.1-1-10.4-1.1c2.6-1.5,4.6-4.1,5.7-5.9
		c0.1,0.5,0.1,1.1,0.1,1.8c0,0.3,0,0.7,0,1.1V35h0.5c2,0.2,3.4-0.2,4.3-1.2c1.1-1.2,1.5-3.2,1.1-6.2c-0.2-1.3-0.7-3.4-1.1-5.3
		c-0.2-0.9-0.4-1.8-0.5-2.4c-0.7-3.6,0.1-5.8,1-7c0.5-1,1.5-1.7,2.5-2c0,0,0,0,0.1,0l1.7-5.1h0.5l-1.1,4.9c0.3,0,0.5-0.1,0.8-0.1
		l1.4-4.5h0.5l-0.9,4.4c1.5-0.2,3.1-0.3,4.9-0.5c0.3,0.1,0.6,0.5,0.9,0.9L41,9.5l0.2,0.5l-4.7,1.6c0,0.1,0.1,0.2,0.1,0.3l4.9-0.6
		v0.5l-4.7,0.9c0,0.1,0,0.2,0,0.3l4.9,0.2L41.8,13.6z"/>
</g>
</svg>
